<svg width="70" height="70" viewBox="0 0 70 70" fill="none" xmlns="http://www.w3.org/2000/svg">
<circle cx="35" cy="35" r="35" fill="#CC2929" fill-opacity="0.05"/>
<circle cx="35" cy="35" r="24" fill="#CC2929"/>
<path d="M35 29V35" stroke="#FDFDFD" stroke-width="2" stroke-linecap="round" stroke-linejoin="round"/>
<path d="M33.269 21.9981L22.272 40.9971C22.096 41.3011 22.0032 41.6461 22.0029 41.9974C22.0026 42.3486 22.0949 42.6938 22.2703 42.9981C22.4458 43.3024 22.6983 43.5551 23.0025 43.7308C23.3066 43.9065 23.6517 43.999 24.0029 43.999H45.997C46.3483 43.999 46.6933 43.9065 46.9975 43.7308C47.3016 43.5551 47.5541 43.3024 47.7296 42.9981C47.9051 42.6938 47.9973 42.3486 47.997 41.9974C47.9967 41.6461 47.9039 41.3011 47.7279 40.9971L36.7309 21.9981C36.5552 21.6946 36.3028 21.4426 35.999 21.2674C35.6952 21.0922 35.3507 21 35 21C34.6493 21 34.3047 21.0922 34.0009 21.2674C33.6971 21.4426 33.4447 21.6946 33.269 21.9981V21.9981Z" stroke="#FDFDFD" stroke-width="2" stroke-linecap="round" stroke-linejoin="round"/>
<path d="M35 41C35.8284 41 36.5 40.3284 36.5 39.5C36.5 38.6716 35.8284 38 35 38C34.1716 38 33.5 38.6716 33.5 39.5C33.5 40.3284 34.1716 41 35 41Z" fill="#FDFDFD"/>
</svg>
