<svg width="31" height="31" viewBox="0 0 31 31" fill="none" xmlns="http://www.w3.org/2000/svg">
<path d="M15.6073 22.3415C19.2283 22.3415 22.1638 19.4061 22.1638 15.785C22.1638 12.164 19.2283 9.22852 15.6073 9.22852C11.9862 9.22852 9.05078 12.164 9.05078 15.785C9.05078 19.4061 11.9862 22.3415 15.6073 22.3415Z" stroke="#2000A1" stroke-width="1.87328" stroke-linecap="round" stroke-linejoin="round"/>
<path d="M25.9102 14.8492L27.117 13.0391C27.1956 12.9225 27.2476 12.79 27.2693 12.651C27.291 12.5121 27.2818 12.37 27.2424 12.235C27.0147 11.4854 26.7147 10.7596 26.3465 10.0681C26.279 9.94496 26.1852 9.83826 26.0718 9.75559C25.9583 9.67291 25.828 9.61631 25.6902 9.58981L23.5549 9.16271L22.2303 7.83813L21.8032 5.70275C21.7767 5.56489 21.7201 5.43458 21.6374 5.32113C21.5547 5.20768 21.448 5.11388 21.3249 5.04644C20.6333 4.67831 19.9076 4.37831 19.1579 4.15068C19.0229 4.11127 18.8808 4.10207 18.7419 4.12374C18.6029 4.14541 18.4704 4.1974 18.3538 4.27603L16.5438 5.48269H14.6705L12.8605 4.27603C12.7439 4.1974 12.6114 4.14541 12.4725 4.12374C12.3335 4.10208 12.1914 4.11127 12.0564 4.15068C11.3068 4.37831 10.581 4.6783 9.88942 5.04643C9.7663 5.11388 9.65959 5.20768 9.57691 5.32113C9.49423 5.43459 9.43762 5.56491 9.41112 5.70277L8.98413 7.83801L7.65943 9.16271L5.52417 9.5897C5.38631 9.6162 5.256 9.6728 5.14255 9.75547C5.0291 9.83815 4.9353 9.94485 4.86785 10.068C4.49966 10.7596 4.19962 11.4853 3.97196 12.235C3.93256 12.37 3.92336 12.5121 3.94503 12.651C3.9667 12.79 4.0187 12.9225 4.09734 13.0391L5.30399 14.8491V16.7224L4.09733 18.5324C4.0187 18.649 3.96671 18.7815 3.94504 18.9205C3.92338 19.0594 3.93257 19.2015 3.97197 19.3365C4.19957 20.0862 4.49957 20.8119 4.86772 21.5035C4.93517 21.6266 5.02897 21.7333 5.14242 21.816C5.25587 21.8987 5.38617 21.9553 5.52403 21.9818L7.65943 22.4089L8.98402 23.7335L9.41102 25.8689C9.43751 26.0067 9.49411 26.137 9.57678 26.2505C9.65945 26.3639 9.76615 26.4577 9.88926 26.5252C10.5808 26.8934 11.3066 27.1934 12.0562 27.421C12.1912 27.4604 12.3333 27.4696 12.4722 27.4479C12.6112 27.4262 12.7437 27.3742 12.8603 27.2956L14.6704 26.0889H16.5437L18.3538 27.2957C18.4704 27.3743 18.6029 27.4263 18.7419 27.448C18.8808 27.4696 19.0229 27.4604 19.1579 27.421C19.9075 27.1934 20.6333 26.8934 21.3248 26.5253C21.4479 26.4579 21.5546 26.3641 21.6373 26.2506C21.72 26.1372 21.7766 26.0068 21.8031 25.869L22.2302 23.7336L23.5548 22.4089L25.6902 21.9819C25.828 21.9554 25.9583 21.8988 26.0718 21.8161C26.1852 21.7335 26.279 21.6267 26.3465 21.5036C26.7147 20.8121 27.0147 20.0864 27.2424 19.3367C27.2818 19.2017 27.291 19.0597 27.2693 18.9207C27.2476 18.7817 27.1956 18.6492 27.117 18.5326L25.9102 16.7225V14.8492Z" stroke="#2000A1" stroke-width="1.87328" stroke-linecap="round" stroke-linejoin="round"/>
</svg>
