<svg width="31" height="31" viewBox="0 0 31 31" fill="none" xmlns="http://www.w3.org/2000/svg">
<path d="M15.6075 22.34C19.2286 22.34 22.164 19.4046 22.164 15.7835C22.164 12.1625 19.2286 9.22705 15.6075 9.22705C11.9865 9.22705 9.05103 12.1625 9.05103 15.7835C9.05103 19.4046 11.9865 22.34 15.6075 22.34Z" stroke="#CCCCD6" stroke-width="1.87328" stroke-linecap="round" stroke-linejoin="round"/>
<path d="M25.911 14.8473L27.1177 13.0372C27.1964 12.9206 27.2483 12.7881 27.27 12.6491C27.2917 12.5101 27.2825 12.3681 27.2431 12.2331C27.0154 11.4834 26.7154 10.7577 26.3472 10.0661C26.2798 9.943 26.186 9.8363 26.0725 9.75363C25.9591 9.67096 25.8288 9.61436 25.6909 9.58786L23.5556 9.16076L22.231 7.83617L21.8039 5.70079C21.7774 5.56294 21.7208 5.43263 21.6382 5.31918C21.5555 5.20573 21.4488 5.11193 21.3257 5.04448C20.6341 4.67635 19.9083 4.37636 19.1586 4.14872C19.0236 4.10932 18.8816 4.10012 18.7426 4.12179C18.6036 4.14345 18.4711 4.19545 18.3545 4.27408L16.5445 5.48074H14.6713L12.8613 4.27408C12.7447 4.19545 12.6122 4.14345 12.4732 4.12179C12.3342 4.10012 12.1922 4.10932 12.0572 4.14872C11.3075 4.37635 10.5817 4.67635 9.89015 5.04448C9.76703 5.11192 9.66032 5.20572 9.57764 5.31918C9.49496 5.43264 9.43835 5.56295 9.41186 5.70082L8.98486 7.83606L7.66016 9.16076L5.5249 9.58775C5.38704 9.61424 5.25674 9.67085 5.14328 9.75352C5.02983 9.83619 4.93603 9.9429 4.86859 10.066C4.5004 10.7576 4.20035 11.4834 3.97269 12.2331C3.93329 12.3681 3.9241 12.5101 3.94577 12.6491C3.96744 12.7881 4.01943 12.9205 4.09807 13.0372L5.30473 14.8472V16.7204L4.09806 18.5304C4.01943 18.647 3.96744 18.7795 3.94577 18.9185C3.92411 19.0575 3.9333 19.1995 3.9727 19.3345C4.2003 20.0842 4.5003 20.81 4.86845 21.5016C4.9359 21.6247 5.0297 21.7314 5.14315 21.8141C5.2566 21.8967 5.38691 21.9533 5.52476 21.9798L7.66016 22.4069L8.98475 23.7315L9.41175 25.8669C9.43824 26.0048 9.49484 26.1351 9.57751 26.2485C9.66019 26.362 9.76689 26.4558 9.89 26.5232C10.5816 26.8914 11.3073 27.1914 12.057 27.419C12.192 27.4584 12.334 27.4676 12.473 27.4459C12.6119 27.4243 12.7444 27.3723 12.861 27.2936L14.6711 26.087H16.5444L18.3545 27.2937C18.4711 27.3724 18.6036 27.4244 18.7426 27.446C18.8816 27.4677 19.0236 27.4585 19.1586 27.4191C19.9083 27.1915 20.634 26.8915 21.3256 26.5233C21.4487 26.4559 21.5554 26.3621 21.638 26.2487C21.7207 26.1352 21.7773 26.0049 21.8038 25.867L22.2309 23.7316L23.5555 22.4069L25.6909 21.9799C25.8287 21.9534 25.959 21.8968 26.0725 21.8142C26.186 21.7315 26.2798 21.6248 26.3472 21.5017C26.7154 20.8101 27.0154 20.0844 27.2431 19.3348C27.2825 19.1997 27.2917 19.0577 27.27 18.9187C27.2483 18.7798 27.1963 18.6473 27.1177 18.5306L25.911 16.7206V14.8473Z" stroke="#CCCCD6" stroke-width="1.87328" stroke-linecap="round" stroke-linejoin="round"/>
</svg>
