<svg width="28" height="28" viewBox="0 0 28 28" fill="none" xmlns="http://www.w3.org/2000/svg">
<mask id="mask0_1_2497" style="mask-type:alpha" maskUnits="userSpaceOnUse" x="0" y="0" width="28" height="28">
<circle cx="14" cy="14" r="14" fill="#616161"/>
</mask>
<g mask="url(#mask0_1_2497)">
</g>
<g clip-path="url(#clip0_1_2497)">
<path d="M23.4486 14.8037H16.5171C16.2142 14.8037 15.9673 15.0506 15.9673 15.3535C15.9673 15.5078 16.0328 15.6468 16.1351 15.747L21.0159 20.6278C21.1161 20.7359 21.261 20.8035 21.4192 20.8035C21.6101 20.8035 21.7779 20.707 21.8763 20.5604C23.0763 19.1674 23.848 17.3984 23.987 15.4519C23.9947 15.4191 23.9985 15.3863 23.9985 15.3535C23.9986 15.0506 23.7535 14.8037 23.4486 14.8037Z" fill="#2000A1"/>
<path d="M14.4244 4.83936C14.1214 4.84121 13.8765 5.08629 13.8765 5.38916V13.0924C13.8765 13.3972 14.1214 13.6442 14.4244 13.6442H22.1296C22.4325 13.6442 22.6794 13.3972 22.6794 13.0924C22.4073 8.65922 18.8595 5.11142 14.4244 4.83936Z" fill="#2000A1"/>
<path d="M18.6599 20.1782L12.9766 14.4949C12.8801 14.3965 12.8223 14.2595 12.8223 14.1109L12.8203 6.08353C12.8203 5.78067 12.5753 5.53564 12.2724 5.53564C7.65583 5.81734 4 9.65251 4 14.3386C4 19.2098 7.94913 23.1608 12.8203 23.1608C15.0427 23.1608 17.0722 22.339 18.6233 20.9827C18.7429 20.8823 18.8182 20.7319 18.8182 20.5641C18.8182 20.4155 18.7583 20.2785 18.6599 20.1782Z" fill="#2000A1"/>
</g>
<defs>
<clipPath id="clip0_1_2497">
<rect width="20" height="20" fill="white" transform="translate(4 4)"/>
</clipPath>
</defs>
</svg>
