<svg width="23" height="25" viewBox="0 0 23 25" fill="none" xmlns="http://www.w3.org/2000/svg">
<path d="M14.4165 22.2047V16.5847C14.4165 16.3363 14.3178 16.0981 14.1422 15.9224C13.9665 15.7468 13.7283 15.6481 13.4798 15.6481H9.73328C9.48487 15.6481 9.24663 15.7468 9.07098 15.9224C8.89532 16.0981 8.79664 16.3363 8.79664 16.5847V22.2047C8.79664 22.4531 8.69798 22.6913 8.52235 22.867C8.34672 23.0426 8.10851 23.1413 7.86012 23.1414L2.24096 23.1421C2.11795 23.1421 1.99614 23.1179 1.88248 23.0708C1.76883 23.0238 1.66556 22.9548 1.57858 22.8678C1.49159 22.7808 1.42259 22.6776 1.37551 22.5639C1.32843 22.4503 1.3042 22.3285 1.3042 22.2055V11.3802C1.3042 11.2497 1.33147 11.1206 1.38425 11.0013C1.43704 10.8819 1.51418 10.775 1.61073 10.6872L10.9765 2.17137C11.1489 2.01461 11.3736 1.92774 11.6066 1.92773C11.8396 1.92773 12.0643 2.01458 12.2367 2.17133L21.6037 10.6872C21.7003 10.775 21.7774 10.882 21.8302 11.0013C21.883 11.1206 21.9103 11.2497 21.9103 11.3802V22.2055C21.9103 22.3285 21.8861 22.4503 21.839 22.5639C21.7919 22.6776 21.7229 22.7808 21.6359 22.8678C21.5489 22.9548 21.4457 23.0238 21.332 23.0708C21.2184 23.1179 21.0966 23.1421 20.9735 23.1421L15.353 23.1414C15.1046 23.1413 14.8664 23.0426 14.6908 22.867C14.5152 22.6913 14.4165 22.4531 14.4165 22.2047V22.2047Z" stroke="#2000A1" stroke-width="1.87328" stroke-linecap="round" stroke-linejoin="round"/>
</svg>
