<svg width="31" height="31" viewBox="0 0 31 31" fill="none" xmlns="http://www.w3.org/2000/svg">
<path d="M18.4165 25.2067V19.5867C18.4165 19.3383 18.3178 19.1 18.1422 18.9244C17.9665 18.7487 17.7283 18.6501 17.4798 18.6501H13.7333C13.4849 18.6501 13.2466 18.7487 13.071 18.9244C12.8953 19.1 12.7966 19.3383 12.7966 19.5867V25.2067C12.7966 25.4551 12.698 25.6933 12.5223 25.8689C12.3467 26.0446 12.1085 26.1433 11.8601 26.1433L6.24096 26.144C6.11795 26.1441 5.99614 26.1198 5.88248 26.0728C5.76883 26.0257 5.66556 25.9567 5.57858 25.8698C5.49159 25.7828 5.42259 25.6795 5.37551 25.5659C5.32843 25.4522 5.3042 25.3304 5.3042 25.2074V14.3821C5.3042 14.2516 5.33147 14.1226 5.38425 14.0032C5.43704 13.8839 5.51418 13.7769 5.61073 13.6891L14.9765 5.17332C15.1489 5.01656 15.3736 4.9297 15.6066 4.92969C15.8396 4.92968 16.0643 5.01653 16.2367 5.17328L25.6037 13.6891C25.7003 13.7769 25.7774 13.8839 25.8302 14.0033C25.883 14.1226 25.9103 14.2517 25.9103 14.3822V25.2074C25.9103 25.3304 25.8861 25.4522 25.839 25.5659C25.7919 25.6795 25.7229 25.7828 25.6359 25.8698C25.5489 25.9567 25.4457 26.0257 25.332 26.0728C25.2184 26.1199 25.0966 26.1441 24.9735 26.1441L19.353 26.1433C19.1046 26.1433 18.8664 26.0446 18.6908 25.8689C18.5152 25.6933 18.4165 25.4551 18.4165 25.2067V25.2067Z" stroke="#CCCCD6" stroke-width="1.87328" stroke-linecap="round" stroke-linejoin="round"/>
</svg>
