<svg width="31" height="31" viewBox="0 0 31 31" fill="none" xmlns="http://www.w3.org/2000/svg">
<path d="M18.4167 25.2047V19.5847C18.4167 19.3363 18.3181 19.0981 18.1424 18.9224C17.9667 18.7468 17.7285 18.6481 17.4801 18.6481H13.7335C13.4851 18.6481 13.2469 18.7468 13.0712 18.9224C12.8956 19.0981 12.7969 19.3363 12.7969 19.5847V25.2047C12.7969 25.4531 12.6982 25.6913 12.5226 25.867C12.347 26.0426 12.1088 26.1413 11.8604 26.1414L6.2412 26.1421C6.11819 26.1421 5.99638 26.1179 5.88273 26.0708C5.76908 26.0238 5.66581 25.9548 5.57882 25.8678C5.49183 25.7808 5.42283 25.6776 5.37575 25.5639C5.32867 25.4503 5.30444 25.3285 5.30444 25.2055V14.3802C5.30444 14.2497 5.33171 14.1206 5.3845 14.0013C5.43728 13.8819 5.51442 13.775 5.61097 13.6872L14.9767 5.17137C15.1491 5.01461 15.3738 4.92774 15.6068 4.92773C15.8398 4.92773 16.0645 5.01458 16.2369 5.17133L25.604 13.6872C25.7005 13.775 25.7777 13.882 25.8305 14.0013C25.8833 14.1206 25.9105 14.2497 25.9105 14.3802V25.2055C25.9105 25.3285 25.8863 25.4503 25.8392 25.5639C25.7922 25.6776 25.7232 25.7808 25.6362 25.8678C25.5492 25.9548 25.4459 26.0238 25.3323 26.0708C25.2186 26.1179 25.0968 26.1421 24.9738 26.1421L19.3533 26.1414C19.1049 26.1413 18.8667 26.0426 18.691 25.867C18.5154 25.6913 18.4167 25.4531 18.4167 25.2047V25.2047Z" stroke="#2000A1" stroke-width="1.87328" stroke-linecap="round" stroke-linejoin="round"/>
</svg>
