<svg width="14" height="14" viewBox="0 0 14 14" fill="none" xmlns="http://www.w3.org/2000/svg">
<path d="M5.09503 6.71731C4.75777 5.87609 4.72131 4.94422 4.9918 4.07922C5.2623 3.21422 5.82316 2.46915 6.57959 1.96993C7.33601 1.47072 8.24161 1.248 9.14329 1.3394C10.045 1.43081 10.8875 1.83074 11.5283 2.4716C12.1692 3.11245 12.5691 3.95493 12.6605 4.85661C12.7519 5.7583 12.5292 6.66389 12.03 7.42031C11.5307 8.17674 10.7857 8.7376 9.92066 9.00809C9.05566 9.27859 8.1238 9.24212 7.28258 8.90486L7.28261 8.90478L6.5625 9.62489H5.25V10.9374H3.9375V12.2499H1.75V10.0624L5.09512 6.71726L5.09503 6.71731Z" stroke="white" stroke-width="1.5" stroke-linecap="round" stroke-linejoin="round"/>
<path d="M9.84375 4.8125C10.2062 4.8125 10.5 4.51869 10.5 4.15625C10.5 3.79381 10.2062 3.5 9.84375 3.5C9.48131 3.5 9.1875 3.79381 9.1875 4.15625C9.1875 4.51869 9.48131 4.8125 9.84375 4.8125Z" fill="white"/>
</svg>
