<svg width="31" height="31" viewBox="0 0 31 31" fill="none" xmlns="http://www.w3.org/2000/svg">
<path d="M15.6073 22.34C19.2283 22.34 22.1638 19.4046 22.1638 15.7835C22.1638 12.1625 19.2283 9.22705 15.6073 9.22705C11.9862 9.22705 9.05078 12.1625 9.05078 15.7835C9.05078 19.4046 11.9862 22.34 15.6073 22.34Z" stroke="#CCCCD6" stroke-width="1.87328" stroke-linecap="round" stroke-linejoin="round"/>
<path d="M25.9102 14.8473L27.117 13.0372C27.1956 12.9206 27.2476 12.7881 27.2693 12.6491C27.291 12.5101 27.2818 12.3681 27.2424 12.2331C27.0147 11.4834 26.7147 10.7577 26.3465 10.0661C26.279 9.943 26.1852 9.8363 26.0718 9.75363C25.9583 9.67096 25.828 9.61436 25.6902 9.58786L23.5549 9.16076L22.2303 7.83617L21.8032 5.70079C21.7767 5.56294 21.7201 5.43263 21.6374 5.31918C21.5547 5.20573 21.448 5.11193 21.3249 5.04448C20.6333 4.67635 19.9076 4.37636 19.1579 4.14872C19.0229 4.10932 18.8808 4.10012 18.7419 4.12179C18.6029 4.14345 18.4704 4.19545 18.3538 4.27408L16.5438 5.48074H14.6705L12.8605 4.27408C12.7439 4.19545 12.6114 4.14345 12.4725 4.12179C12.3335 4.10012 12.1914 4.10932 12.0564 4.14872C11.3068 4.37635 10.581 4.67635 9.88942 5.04448C9.7663 5.11192 9.65959 5.20572 9.57691 5.31918C9.49423 5.43264 9.43762 5.56295 9.41112 5.70082L8.98413 7.83606L7.65943 9.16076L5.52417 9.58775C5.38631 9.61424 5.256 9.67085 5.14255 9.75352C5.0291 9.83619 4.9353 9.9429 4.86785 10.066C4.49966 10.7576 4.19962 11.4834 3.97196 12.2331C3.93256 12.3681 3.92336 12.5101 3.94503 12.6491C3.9667 12.7881 4.0187 12.9205 4.09734 13.0372L5.30399 14.8472V16.7204L4.09733 18.5304C4.0187 18.647 3.96671 18.7795 3.94504 18.9185C3.92338 19.0575 3.93257 19.1995 3.97197 19.3345C4.19957 20.0842 4.49957 20.81 4.86772 21.5016C4.93517 21.6247 5.02897 21.7314 5.14242 21.8141C5.25587 21.8967 5.38617 21.9533 5.52403 21.9798L7.65943 22.4069L8.98402 23.7315L9.41102 25.8669C9.43751 26.0048 9.49411 26.1351 9.57678 26.2485C9.65945 26.362 9.76615 26.4558 9.88926 26.5232C10.5808 26.8914 11.3066 27.1914 12.0562 27.419C12.1912 27.4584 12.3333 27.4676 12.4722 27.4459C12.6112 27.4243 12.7437 27.3723 12.8603 27.2936L14.6704 26.087H16.5437L18.3538 27.2937C18.4704 27.3724 18.6029 27.4244 18.7419 27.446C18.8808 27.4677 19.0229 27.4585 19.1579 27.4191C19.9075 27.1915 20.6333 26.8915 21.3248 26.5233C21.4479 26.4559 21.5546 26.3621 21.6373 26.2487C21.72 26.1352 21.7766 26.0049 21.8031 25.867L22.2302 23.7316L23.5548 22.4069L25.6902 21.9799C25.828 21.9534 25.9583 21.8968 26.0718 21.8142C26.1852 21.7315 26.279 21.6248 26.3465 21.5017C26.7147 20.8101 27.0147 20.0844 27.2424 19.3348C27.2818 19.1997 27.291 19.0577 27.2693 18.9187C27.2476 18.7798 27.1956 18.6473 27.117 18.5306L25.9102 16.7206V14.8473Z" stroke="#CCCCD6" stroke-width="1.87328" stroke-linecap="round" stroke-linejoin="round"/>
</svg>
