<svg width="31" height="31" viewBox="0 0 31 31" fill="none" xmlns="http://www.w3.org/2000/svg">
<path d="M21.2271 7.32666H26.8469" stroke="#CCCCD6" stroke-width="1.87328" stroke-linecap="round" stroke-linejoin="round"/>
<path d="M24.0374 4.5166V10.1364" stroke="#CCCCD6" stroke-width="1.87328" stroke-linecap="round" stroke-linejoin="round"/>
<path d="M4.25 26.0588C5.40155 24.0656 7.05736 22.4105 9.05109 21.2598C11.0448 20.1091 13.3062 19.5034 15.6082 19.5034C17.9101 19.5034 20.1716 20.1092 22.1653 21.26C24.159 22.4107 25.8147 24.0658 26.9663 26.059" stroke="#CCCCD6" stroke-width="1.87328" stroke-linecap="round" stroke-linejoin="round"/>
<path d="M22.6382 14.6069C22.1373 15.9593 21.2566 17.1383 20.1019 18.0022C18.9473 18.8662 17.5677 19.3784 16.1289 19.4774C14.6902 19.5763 13.2535 19.2577 11.9914 18.5599C10.7293 17.8621 9.69557 16.8148 9.01431 15.5437C8.33305 14.2726 8.03326 12.8319 8.15097 11.3945C8.26867 9.95722 8.79887 8.58444 9.67785 7.44113C10.5568 6.29783 11.7472 5.43262 13.106 4.94945C14.4648 4.46627 15.9342 4.38569 17.3377 4.71738" stroke="#CCCCD6" stroke-width="1.87328" stroke-linecap="round" stroke-linejoin="round"/>
</svg>
